<?xml version="1.0" encoding="UTF-8"?>
<svg width="307px" height="83px" viewBox="0 0 307 83" version="1.1" xmlns="http://www.w3.org/2000/svg" xmlns:xlink="http://www.w3.org/1999/xlink">
    <!-- Generator: Sketch 43.1 (39012) - http://www.bohemiancoding.com/sketch -->
    <title>logo-standalone</title>
    <desc>Created with Sketch.</desc>
    <defs>
        <linearGradient x1="-5.84895431%" y1="6.58183561%" x2="106.488058%" y2="93.7709699%" id="linearGradient-1">
            <stop stop-color="#BBFF14" offset="0%"></stop>
            <stop stop-color="#39FF14" offset="100%"></stop>
        </linearGradient>
    </defs>
    <g id="Page-1" stroke="none" stroke-width="1" fill="none" fill-rule="evenodd">
        <g id="logo-standalone" fill-rule="nonzero">
            <path d="M11.9771,58.6744 C11.9771,61.8704 13.0971,64.5884 15.3471,66.8364 C17.5971,69.0844 20.3161,70.2114 23.5091,70.2114 C26.7011,70.2114 29.4211,69.0844 31.6721,66.8364 C33.9181,64.5884 35.0451,61.8704 35.0451,58.6744 L35.0451,31.8414 C35.0451,30.2184 35.6261,28.8134 36.8041,27.6414 C37.9721,26.4694 39.3761,25.8814 41.0061,25.8814 L41.1041,25.8814 C42.7641,25.8814 44.1461,26.4694 45.2581,27.6414 C46.4311,28.8134 47.0151,30.2184 47.0151,31.8414 L47.0151,58.6744 C47.0151,61.8704 48.1391,64.5884 50.3881,66.8364 C52.6361,69.0844 55.3581,70.2114 58.5501,70.2114 C61.7771,70.2114 64.5131,69.0844 66.7611,66.8364 C69.0061,64.5884 70.1301,61.8704 70.1301,58.6744 L70.1301,31.8414 C70.1301,30.2184 70.7181,28.8134 71.8921,27.6414 C72.9961,26.4694 74.3851,25.8814 76.0451,25.8814 L76.1431,25.8814 C77.7701,25.8814 79.1721,26.4694 80.3461,27.6414 C81.4871,28.8134 82.0571,30.2184 82.0571,31.8414 L82.0571,58.6744 C82.0571,65.1564 79.7581,70.6994 75.1651,75.2904 C70.5741,79.8854 65.0341,82.1804 58.5501,82.1804 C50.7921,82.1804 44.9601,79.6084 41.0561,74.4624 C37.1141,79.6084 31.2621,82.1804 23.5091,82.1804 C17.0241,82.1804 11.4891,79.8854 6.8921,75.2904 C2.2991,70.6994 0.0001,65.1564 0.0001,58.6744 L0.0001,31.8414 C0.0001,30.2184 0.5881,28.8134 1.7651,27.6414 C2.9331,26.4694 4.3171,25.8814 5.9181,25.8814 L6.0591,25.8814 C7.6571,25.8814 9.0441,26.4694 10.2191,27.6414 C11.3891,28.8134 11.9771,30.2184 11.9771,31.8414 L11.9771,58.6744 Z" id="Fill-1" fill="#515B5E"></path>
            <path d="M182.8652,39.3604 C178.7652,37.5114 174.6232,37.3774 170.4452,38.9614 C166.2962,40.5564 163.2982,43.4054 161.4482,47.5024 L161.3052,47.8144 L191.2572,47.8144 C190.2322,44.2094 187.4392,41.4184 182.8652,39.3604 M204.3782,53.8254 C204.4012,54.7294 204.2402,55.5674 203.8872,56.3414 C203.6092,56.9594 203.2092,57.5304 202.6862,58.0484 C201.5522,59.2174 200.1502,59.7984 198.4732,59.7914 C193.4712,59.7914 186.8932,59.7944 178.7432,59.7984 C168.6252,59.8154 162.6802,59.8354 160.9162,59.8634 C161.8932,63.7334 164.7682,66.7404 169.5522,68.8984 C172.7312,70.3314 176.0332,70.6924 179.4572,69.9914 C182.8152,69.2834 185.6492,67.7024 187.9742,65.2484 C189.9342,63.2004 192.2042,62.7604 194.7852,63.9254 C196.6282,64.7534 197.7552,66.1934 198.1582,68.2314 C198.4092,69.4854 198.3002,70.6374 197.8362,71.6784 C197.5552,72.3004 197.1482,72.8814 196.6142,73.4274 C192.5742,77.7234 187.6522,80.4384 181.8512,81.5684 C175.9372,82.8034 170.2142,82.1744 164.6942,79.6794 C157.6192,76.4964 152.7082,71.2594 149.9522,63.9804 C147.1972,56.6954 147.4072,49.5194 150.5972,42.4494 C153.7792,35.3844 159.0162,30.4694 166.2962,27.7134 C173.5782,24.9504 180.7522,25.1674 187.8262,28.3524 C192.9352,30.6554 196.9692,34.1574 199.9242,38.8444 C202.8832,43.4674 204.3672,48.4604 204.3782,53.8254" id="Fill-3" fill="#515B5E"></path>
            <path d="M121.7373,39.3604 C117.6403,37.5114 113.4983,37.3774 109.3203,38.9614 C105.1673,40.5564 102.1703,43.4054 100.3233,47.5024 L100.1823,47.8144 L130.1273,47.8144 C129.1073,44.2094 126.3113,41.4184 121.7373,39.3604 M143.2543,53.8254 C143.2753,54.7294 143.1113,55.5674 142.7643,56.3414 C142.4813,56.9594 142.0843,57.5304 141.5633,58.0484 C140.4253,59.2174 139.0223,59.7984 137.3463,59.7914 C132.3463,59.7914 125.7703,59.7944 117.6203,59.7984 C107.4993,59.8154 101.5533,59.8354 99.7923,59.8634 C100.7663,63.7334 103.6433,66.7404 108.4273,68.8984 C111.6023,70.3314 114.9053,70.6924 118.3313,69.9914 C121.6873,69.2834 124.5263,67.7024 126.8473,65.2484 C128.8093,63.2004 131.0783,62.7604 133.6643,63.9254 C135.5043,64.7534 136.6263,66.1934 137.0303,68.2314 C137.2863,69.4854 137.1763,70.6374 136.7123,71.6784 C136.4293,72.3004 136.0253,72.8814 135.4893,73.4274 C131.4463,77.7234 126.5283,80.4384 120.7233,81.5684 C114.8093,82.8034 109.0903,82.1744 103.5663,79.6794 C96.4963,76.4964 91.5823,71.2594 88.8243,63.9804 C86.0683,56.6954 86.2813,49.5194 89.4703,42.4494 C92.6523,35.3844 97.8883,30.4694 105.1703,27.7134 C112.4533,24.9504 119.6283,25.1674 126.6983,28.3524 C131.8083,30.6554 135.8393,34.1574 138.8023,38.8444 C141.7543,43.4674 143.2383,48.4604 143.2543,53.8254" id="Fill-5" fill="#515B5E"></path>
            <path d="M261.1523,57.5909 L260.8653,57.5909 C256.7413,57.5909 253.3983,54.2479 253.3983,50.1239 L253.3983,6.0459 C253.3983,2.7069 256.1043,-0.0001 259.4443,-0.0001 C262.7833,-0.0001 265.4903,2.7069 265.4903,6.0459 L265.4903,53.2529 C265.4903,55.6489 263.5483,57.5909 261.1523,57.5909" id="Fill-7" fill="#39FF13"></path>
            <path d="M271.6982,59.585 L271.6982,76.136 C271.6982,79.475 274.4052,82.182 277.7442,82.182 C281.0832,82.182 283.7902,79.475 283.7902,76.136 L283.7902,47.319 C283.7902,42.181 287.9552,38.016 293.0932,38.016 L300.2732,38.016 C303.2842,38.016 306.0762,35.958 306.5602,32.985 C307.1762,29.197 304.2682,25.924 300.5952,25.924 L293.0932,25.924 C281.2772,25.924 271.6982,35.503 271.6982,47.319 L271.6982,59.585 Z" id="Fill-10" fill="#515B5E"></path>
            <path d="M234.227,25.937 C226.508,26.774 220.223,30.213 215.345,36.271 L215.345,36.271 C210.481,42.327 208.467,49.241 209.309,57.004 L209.309,57.004 C210.146,64.719 213.592,71.017 219.641,75.889 L219.641,75.889 C225.703,80.756 232.581,82.773 240.299,81.937 L240.299,81.937 C248.072,81.094 254.389,77.645 259.253,71.595 L259.253,71.595 C264.069,65.545 266.055,58.658 265.218,50.941 L265.218,50.941 C264.378,43.179 260.958,36.855 254.957,31.976 L254.957,31.976 C249.802,27.823 244.022,25.75 237.616,25.75 L237.616,25.75 C236.505,25.75 235.375,25.812 234.227,25.937 M227.125,66.564 C223.646,63.762 221.663,60.139 221.181,55.699 L221.181,55.699 C220.698,51.235 221.857,47.258 224.655,43.776 L224.655,43.776 C227.46,40.291 231.076,38.312 235.516,37.831 L235.516,37.831 C239.986,37.346 243.96,38.502 247.441,41.305 L247.441,41.305 C250.89,44.111 252.859,47.749 253.343,52.214 L253.343,52.214 C253.824,56.652 252.68,60.613 249.91,64.095 L249.91,64.095 C247.113,67.574 243.48,69.559 239.008,70.043 L239.008,70.043 C238.359,70.113 237.717,70.149 237.087,70.149 L237.087,70.149 C233.419,70.149 230.1,68.953 227.125,66.564" id="Fill-3" fill="url(#linearGradient-1)"></path>
        </g>
    </g>
</svg>